<?xml version="1.0" encoding="utf-8"?>
<!-- Generator: Adobe Illustrator 23.0.3, SVG Export Plug-In . SVG Version: 6.00 Build 0)  -->
<svg version="1.1" id="Layer_1" xmlns="http://www.w3.org/2000/svg" xmlns:xlink="http://www.w3.org/1999/xlink" x="0px" y="0px"
	 viewBox="0 0 250 50.3" style="enable-background:new 0 0 250 50.3;" xml:space="preserve">
<style type="text/css">
	.st0{enable-background:new    ;}
	.st1{fill:#277FD3;}
</style>
<g class="st0">
	<path class="st1" d="M14.2,14.3H5.9v-3h20.3v3h-8.4v24.8h-3.5V14.3z"/>
	<path class="st1" d="M28.8,18.5h2.9l0.3,3.7h0.1c1.4-2.6,3.5-4.2,5.8-4.2c0.9,0,1.5,0.1,2.2,0.4l-0.7,3c-0.7-0.2-1.1-0.3-2-0.3
		c-1.7,0-3.8,1.3-5.2,4.7v13.2h-3.5V18.5z"/>
	<path class="st1" d="M41.2,33.7c0-4.5,3.8-6.7,12.6-7.7c0-2.6-0.8-5.2-4.2-5.2c-2.4,0-4.5,1.1-6.1,2.2l-1.4-2.4
		c1.9-1.2,4.8-2.7,8.1-2.7c5,0,7.1,3.3,7.1,8.4v12.6h-2.9l-0.3-2.4H54c-1.9,1.6-4.2,3-6.8,3C43.8,39.6,41.2,37.4,41.2,33.7z
		 M53.8,34v-5.7c-6.8,0.8-9.2,2.5-9.2,5.2c0,2.3,1.6,3.3,3.6,3.3C50.2,36.8,51.8,35.8,53.8,34z"/>
	<path class="st1" d="M62.3,28.8c0-6.7,4.2-10.8,8.9-10.8c2.4,0,3.9,0.9,5.7,2.4l-0.2-3.5V9h3.5v30.1h-2.9l-0.3-2.4H77
		c-1.6,1.6-3.8,2.9-6.2,2.9C65.6,39.6,62.3,35.7,62.3,28.8z M76.8,33.8V23.1c-1.7-1.6-3.3-2.2-5-2.2c-3.3,0-5.9,3.2-5.9,7.9
		c0,4.9,2.1,7.9,5.7,7.9C73.4,36.6,75.1,35.7,76.8,33.8z"/>
	<path class="st1" d="M85.7,28.8c0-6.7,4.5-10.8,9.2-10.8c5.2,0,8.2,3.8,8.2,9.6c0,0.7,0,1.5-0.1,2H89.1c0.3,4.4,2.9,7.1,6.8,7.1
		c1.9,0,3.6-0.6,5.1-1.6l1.2,2.3c-1.8,1.1-4,2.1-6.8,2.1C90,39.6,85.7,35.5,85.7,28.8z M100,27.1c0-4.1-1.9-6.4-5.1-6.4
		c-2.9,0-5.5,2.3-5.9,6.4H100z"/>
</g>
<g class="st0">
	<path class="st1" d="M107.9,11.5h9.4c5.7,0,10.1,1.6,10.1,6.8c0,2.4-1.4,5.1-3.6,6v0.2c2.8,0.7,4.9,2.8,4.9,6.5
		c0,5.6-4.7,8.1-10.7,8.1h-10.2V11.5z M117.1,22.5c3,0,4.4-1.3,4.4-3.3c0-2.2-1.4-3-4.3-3h-3v6.2H117.1z M117.7,34.2
		c3.4,0,5.1-1.2,5.1-3.7c0-2.4-1.7-3.4-5.1-3.4h-3.5v7.1H117.7z"/>
	<path class="st1" d="M131.8,28.6c0-6.8,4.9-11,9.9-11c6,0,8.9,4.4,8.9,10.1c0,1.1-0.1,2.2-0.3,2.7h-12.5c0.5,3,2.7,4.4,5.4,4.4
		c1.6,0,3-0.5,4.5-1.4l2.1,3.8c-2.2,1.5-4.9,2.4-7.4,2.4C136.4,39.6,131.8,35.5,131.8,28.6z M145.3,26.3c0-2.3-1-4-3.5-4
		c-1.9,0-3.6,1.3-4.1,4H145.3z"/>
	<path class="st1" d="M154,46.8l1.1-4.7c0.4,0.1,0.9,0.3,1.4,0.3c2.1,0,3.1-1.1,3.7-2.7l0.3-1.1l-8.1-20.4h6.3l3,9
		c0.6,1.9,1.1,3.9,1.6,6h0.2c0.5-2,0.9-4,1.4-6l2.5-9h6l-7.3,21.2c-2,5.3-4.2,8-9.2,8C155.7,47.2,154.8,47.1,154,46.8z"/>
	<path class="st1" d="M175,28.6c0-7,4.9-11,10.2-11c5.3,0,10.2,4,10.2,11s-4.9,11-10.2,11C179.9,39.6,175,35.5,175,28.6z
		 M189.1,28.6c0-3.6-1.3-6-3.8-6c-2.6,0-3.8,2.3-3.8,6s1.3,6,3.8,6C187.8,34.5,189.1,32.2,189.1,28.6z"/>
	<path class="st1" d="M199.7,18.1h5.1l0.4,2.7h0.2c1.8-1.7,3.9-3.2,6.7-3.2c4.6,0,6.5,3.2,6.5,8.4v13h-6.2V26.8c0-3-0.8-4-2.6-4
		c-1.6,0-2.5,0.7-3.9,2v14.1h-6.2V18.1z"/>
	<path class="st1" d="M222.8,28.6c0-6.8,4.3-11,8.7-11c2.3,0,3.7,0.8,5.2,2.2l-0.3-3.2V9.4h6.2v29.6h-5.1l-0.4-2.1h-0.2
		c-1.5,1.5-3.5,2.6-5.6,2.6C226.2,39.6,222.8,35.4,222.8,28.6z M236.4,32.6V24c-1.1-1-2.3-1.4-3.5-1.4c-2,0-3.8,1.9-3.8,5.8
		c0,4.1,1.4,6,3.8,6C234.3,34.5,235.4,34,236.4,32.6z"/>
</g>
</svg>
